# xmcd
#
# Track frame offsets: 
#        150
#        21166
#        40392
#        66430
#        93448
#        119965
#        139801
#        167354
#        186140
#
# Disc length: 2745 seconds
#
# Revision: 0
# Processed by: cddbd v1.5.2PL0 Copyright (c) Steve Scherf et al.
# Submitted via: ExactAudioCopy v0.99pb5
#
DISCID=810ab709
DTITLE=Mart Soo - Kulg
DYEAR=2014
DGENRE=Jazz
TTITLE0=Eemal
TTITLE1=Udu Sõru Sadamas
TTITLE2=Coda
TTITLE3=Runner in the sky
TTITLE4=Gary Larson
TTITLE5=Püramiid
TTITLE6=Miraaþ
TTITLE7=Sky Blue
TTITLE8=Ruudule
EXTD=
EXTT0=
EXTT1=
EXTT2=
EXTT3=
EXTT4=
EXTT5=
EXTT6=
EXTT7=
EXTT8=
PLAYORDER=
